<svg width="130" height="44" viewBox="0 0 130 44" fill="none" xmlns="http://www.w3.org/2000/svg">
<path fill-rule="evenodd" clip-rule="evenodd" d="M12.6132 11.9246C12.6631 11.7927 12.7349 11.8986 12.8847 11.8047C13.0454 11.6537 13.21 11.4057 13.4695 11.3237C13.6562 11.2657 13.9127 11.2927 14.0874 11.3607C14.2032 11.3887 14.1333 11.6867 14.0464 11.7627C13.8608 11.8996 13.3128 11.6747 13.3128 12.0846C13.3348 12.7556 14.2231 12.0626 14.6872 12.0826C14.9138 13.7194 12.2099 13.2685 12.6132 11.9246V11.9246ZM13.1082 13.4168C14.1173 13.7108 15.1892 13.5508 15.4268 14.1557C14.9636 14.4007 15.3289 15.2126 15.7951 15.0796C16.1783 14.0018 16.372 9.83924 10.7656 11.0951C11.3585 11.1721 11.7368 13.0159 13.1082 13.4168V13.4168ZM3.82888 14.2854C7.26235 11.4627 6.42394 10.2388 6.30916 10.0139C5.97979 9.35194 5.37693 9.38193 5.37693 9.38193C5.37693 9.38193 6.24029 10.0919 2.0283 13.5915C-2.18469 17.0941 1.47236 19.1218 1.47236 19.1218C1.47236 19.1218 0.40239 17.1061 3.82888 14.2854V14.2854ZM3.54657 9.63454C5.68151 8.2957 4.75128 5.95996 4.75128 5.95996C4.6335 6.58689 3.72423 7.20782 3.72423 7.20782C3.22019 7.53778 1.19703 8.43668 1.04732 10.6564C1.01438 11.1014 1.0593 11.6003 1.20901 12.1583C1.72703 11.1114 2.46363 10.3145 3.54657 9.63454V9.63454ZM7.85394 24.7418C9.02371 19.6144 7.35688 18.3516 7.35688 18.3516C7.35688 18.3516 7.65032 19.7564 6.40769 23.368C3.15487 32.8139 9.36706 33.7088 11.1357 35.9286C11.1357 35.9286 11.8204 34.9667 9.00275 31.887C7.97371 30.7622 7.04547 28.2834 7.85394 24.7418V24.7418ZM3.91548 22.8623C4.16002 20.9755 5.30684 18.9507 6.28498 17.5339C7.44777 15.8461 7.02457 14.0993 6.80299 13.3174C6.6952 15.0892 3.94243 17.5139 3.08007 19.0677C2.65688 19.8326 2.14086 21.1445 2.00811 21.9054C1.64181 24.0212 2.10592 25.336 2.62394 26.5729C3.53421 28.7496 2.50017 29.5485 3.21282 29.1086C4.09414 28.3927 3.9604 26.7219 3.89552 25.679C3.84362 24.8331 3.78673 23.8712 3.91548 22.8623V22.8623ZM16.54 29.1863C17.9643 29.0843 18.8237 29.4963 19.5772 29.4963L19.5703 21.9081C18.4883 21.0862 17.9813 21.9151 17.3016 21.8601C16.7267 21.8141 16.1877 20.8882 15.7415 21.1102C14.8921 21.5402 16.0829 23.065 16.5989 23.376C17.059 23.6509 17.6389 23.9039 17.7777 23.9679C18.4604 24.2858 18.7328 24.7678 18.8187 25.5207C18.8406 25.6927 18.8187 26.0866 18.7758 26.2696C18.4644 27.5885 16.1468 28.7853 14.8163 27.8794C14.1895 27.4515 13.6166 26.8986 13.4189 25.9207C13.0606 24.1869 11.805 22.913 11.4028 21.2172C11.1572 20.1873 10.9766 19.0994 10.7071 18.0636C10.4326 16.9917 10.1502 15.9298 9.92459 14.9569C9.71998 14.051 9.2878 12.6992 8.9754 11.8753C7.70381 8.56663 7.12891 8.80761 7.12891 8.80761C7.12891 8.80761 7.59302 9.7255 9.27582 17.8326C9.34569 18.1645 9.95653 21.7361 10.4047 22.912C10.5634 23.334 10.8428 24.2339 11.0265 24.6308C11.5615 25.7937 12.9758 27.5535 13.0696 29.1413C13.1225 30.0582 13.2273 30.8181 13.2493 31.513C13.2632 31.716 13.3531 32.5439 13.4858 32.9119C13.8312 33.8798 16.6179 37.0044 19.5772 37.0044V34.6357C16.6368 34.6357 13.8671 32.9939 13.7992 32.8219C13.7563 32.7439 13.9519 31.624 14.1516 31.1261C14.5358 30.1622 15.2624 29.2803 16.54 29.1863V29.1863ZM21.2852 0.0719918L36.2767 44L36.6779 43.926L21.6864 0L21.2852 0.0719918ZM128.947 18.6111C128.31 18.0412 127.432 17.7842 126.519 17.7842C125.447 17.7842 124.347 18.1361 123.461 18.7451L123.248 17.9742H121.42V27.849H123.581V20.5329C124.173 20.1529 124.93 19.9239 125.669 19.9239C126.232 19.9239 126.786 20.0569 127.184 20.3809C127.581 20.7048 127.839 21.2178 127.839 21.9507V27.849H130V21.2948C130 20.0679 129.584 19.183 128.947 18.6111V18.6111ZM114.004 21.9796C114.124 21.2657 114.428 20.7527 114.806 20.4098C115.177 20.0768 115.629 19.9238 116.072 19.9238C116.487 19.9238 116.912 20.0678 117.245 20.4008C117.577 20.7427 117.808 21.2567 117.873 21.9796H114.004ZM117.418 18.0222C116.856 17.8222 116.311 17.7842 116.006 17.7842C114.925 17.7842 113.844 18.2311 113.042 19.097C112.228 19.9719 111.693 21.2468 111.693 22.9116C111.693 24.6244 112.265 25.9183 113.172 26.7642C114.076 27.6111 115.304 28.039 116.634 28.039C117.04 28.039 117.511 27.992 117.992 27.897C118.462 27.801 118.924 27.6691 119.358 27.4491V25.2903L119.276 25.2613C118.536 25.6713 117.678 25.9083 116.865 25.9083C116.246 25.9083 115.628 25.7653 115.12 25.4233C114.602 25.0804 114.205 24.5384 114.03 23.7395H119.848V22.2557C119.848 20.8848 119.524 19.9149 119.063 19.259C118.6 18.6021 117.983 18.2211 117.418 18.0222V18.0222ZM110.843 17.8702C110.492 17.8032 110.132 17.7842 109.873 17.7842C108.913 17.7842 108.1 18.2021 107.435 18.7831L107.213 17.9742H105.385V27.849H107.546V20.6569C108.129 20.2009 108.774 19.9339 109.476 19.9339C110.021 19.9339 110.556 20.0869 111.101 20.4289L111.786 18.1741C111.535 18.0312 111.194 17.9362 110.843 17.8702V17.8702ZM97.9669 21.9795C98.0867 21.2656 98.3911 20.7526 98.7694 20.4097C99.1397 20.0767 99.5918 19.9237 100.035 19.9237C100.45 19.9237 100.875 20.0677 101.208 20.4007C101.54 20.7426 101.771 21.2566 101.837 21.9795H97.9669ZM101.383 18.0222C100.82 17.8222 100.275 17.7842 99.97 17.7842C98.8901 17.7842 97.8091 18.2311 97.0066 19.097C96.1932 19.9719 95.6582 21.2468 95.6582 22.9116C95.6582 24.6244 96.2301 25.9183 97.1364 26.7642C98.0407 27.6111 99.2693 28.039 100.599 28.039C101.006 28.039 101.476 27.992 101.957 27.897C102.427 27.801 102.888 27.6691 103.323 27.4491V25.2903L103.241 25.2613C102.502 25.6713 101.643 25.9083 100.829 25.9083C100.211 25.9083 99.5927 25.7653 99.0847 25.4233C98.5667 25.0804 98.1694 24.5384 97.9948 23.7395H103.813V22.2557C103.813 20.8848 103.489 19.9149 103.028 19.259C102.566 18.6021 101.947 18.2211 101.383 18.0222V18.0222ZM91.738 25.2898C91.1571 25.6608 90.4265 25.8987 89.7717 25.8987C89.0052 25.8987 88.4333 25.5268 88.045 24.9658C87.6567 24.4049 87.4531 23.673 87.4531 22.9211C87.4531 21.8932 87.7306 21.1323 88.2107 20.6183C88.6908 20.1044 89.3835 19.8574 90.2059 19.8574C90.6391 19.8574 91.193 19.9234 91.738 20.0674V25.2898ZM91.7393 14.2642V17.8788C91.2333 17.8118 90.7602 17.7838 90.327 17.7838C88.8488 17.7838 87.5752 18.2308 86.6699 19.1437C85.7657 20.0676 85.2207 21.4564 85.2207 23.3202C85.2207 24.5381 85.5531 25.7179 86.2258 26.5928C86.9005 27.4677 87.9266 28.0387 89.3019 28.0387C90.3629 28.0387 91.1404 27.6767 91.879 27.1068L92.2663 27.8487H93.9002V14.0732H93.5678L91.7393 14.2642ZM80.072 17.7842C79 17.7842 77.9001 18.1361 77.0138 18.7451L76.8022 17.9742H74.9727V27.849H77.1345V20.5329C77.7254 20.1529 78.483 19.9239 79.2216 19.9239C79.7845 19.9239 80.3385 20.0569 80.7367 20.3809C81.1339 20.7048 81.3925 21.2178 81.3925 21.9507V27.849H83.5533V21.2948C83.5533 20.0679 83.1371 19.183 82.5003 18.6111C81.8626 18.0412 80.9852 17.7842 80.072 17.7842V17.7842ZM70.1238 24.4534C70.1238 25.2423 69.8094 25.6713 69.4231 25.9182C69.0339 26.1652 68.5827 26.2222 68.3142 26.2222C67.5297 26.2222 66.9668 25.7753 66.9668 24.9664C66.9668 24.3854 67.2612 24.1004 67.7972 23.9675C68.3332 23.8345 69.1177 23.8535 70.1238 23.8535V24.4534ZM72.2575 24.7006V21.028C72.2575 19.8202 71.8413 19.0113 71.1856 18.4983C70.5218 17.9844 69.6345 17.7744 68.6833 17.7744C67.4736 17.7744 66.1901 18.1174 65.183 18.6113L65.691 20.5521C66.0703 20.3621 66.5124 20.2011 66.9566 20.0772C67.3998 19.9532 67.8519 19.8772 68.2591 19.8772C68.7761 19.8772 69.2373 19.9912 69.5786 20.2771C69.922 20.5621 70.1326 21.038 70.1326 21.723V22.2169C69.2842 22.1419 68.6833 22.1419 68.1663 22.1419C66.8827 22.1419 66.0413 22.3989 65.5253 22.8638C65.0083 23.3308 64.8047 24.0247 64.8047 24.8916C64.8047 25.7655 65.0083 26.4124 65.3307 26.8784C65.6541 27.3453 66.0882 27.6303 66.5594 27.8013C67.0305 27.9733 67.5195 28.0392 67.9637 28.0392C68.5825 28.0392 69.0336 27.9253 69.4409 27.7353C69.8381 27.5543 70.1705 27.2983 70.5488 27.0034C70.9101 27.4123 71.2694 27.6693 71.6287 27.8203C71.99 27.9823 72.3404 28.0392 72.7007 28.0392L73.6798 26.1755C73.2646 26.0895 72.9133 25.9565 72.6637 25.7285C72.4062 25.4995 72.2575 25.1666 72.2575 24.7006V24.7006ZM60.6912 24.4534C60.6912 25.2423 60.3778 25.6713 59.9895 25.9182C59.6023 26.1652 59.1491 26.2222 58.8806 26.2222C58.0961 26.2222 57.5332 25.7753 57.5332 24.9664C57.5332 24.3854 57.8286 24.1004 58.3636 23.9675C58.8996 23.8345 59.6851 23.8535 60.6912 23.8535V24.4534ZM62.8249 24.7006V21.028C62.8249 19.8202 62.4097 19.0113 61.753 18.4983C61.0882 17.9844 60.2019 17.7744 59.2507 17.7744C58.041 17.7744 56.7575 18.1174 55.7504 18.6113L56.2584 20.5521C56.6367 20.3621 57.0798 20.2011 57.524 20.0772C57.9662 19.9532 58.4193 19.8772 58.8255 19.8772C59.3425 19.8772 59.8047 19.9912 60.146 20.2771C60.4884 20.5621 60.701 21.038 60.701 21.723V22.2169C59.8506 22.1419 59.2507 22.1419 58.7327 22.1419C57.4491 22.1419 56.6097 22.3989 56.0917 22.8638C55.5747 23.3308 55.3711 24.0247 55.3711 24.8916C55.3711 25.7655 55.5747 26.4124 55.8981 26.8784C56.2215 27.3453 56.6547 27.6303 57.1268 27.8013C57.5969 27.9733 58.0869 28.0392 58.5301 28.0392C59.1489 28.0392 59.602 27.9253 60.0073 27.7353C60.4045 27.5543 60.7369 27.2983 61.1162 27.0034C61.4765 27.4123 61.8358 27.6693 62.1971 27.8203C62.5574 27.9823 62.9078 28.0392 63.2681 28.0392L64.2472 26.1755C63.831 26.0895 63.4807 25.9565 63.2312 25.7285C62.9726 25.4995 62.8249 25.1666 62.8249 24.7006V24.7006ZM51.457 14.2642V27.8487H53.6179V14.0732H53.3405L51.457 14.2642ZM44.4522 24.9764L41.2203 15.3105H38.9297L43.1866 28.0391H45.7168L49.9747 15.3105H47.685L44.4522 24.9764Z" fill="#333332"/>
</svg>
